<svg xmlns="http://www.w3.org/2000/svg" id="Layer_1" data-name="Layer 1" viewBox="0 0 256 256"><title>shutter</title><path fill="#1769ff" d="M128,2a126,126,0,0,1,89.1,215.1A126,126,0,0,1,38.9,38.9,125.18,125.18,0,0,1,128,2m0-2A128,128,0,1,0,256,128,128,128,0,0,0,128,0Z"/><path fill="#1769ff" d="M129,84a46,46,0,1,1-46,46,46.05,46.05,0,0,1,46-46m0-2a48,48,0,1,0,48,48,48,48,0,0,0-48-48Z"/><path fill="#1769ff" d="M180,45a14,14,0,1,1-14,14,14,14,0,0,1,14-14m0-2a16,16,0,1,0,16,16,16,16,0,0,0-16-16Z"/></svg>